<svg xmlns="http://www.w3.org/2000/svg" enable-background="new 0 0 64 64" viewBox="0 0 64 64"><path d="M52.229 16.398c1.314-.061 2.329-1.176 2.268-2.49v0c-.061-1.314-1.176-2.329-2.49-2.268l-.892.041-.041-.892c-.061-1.314-1.176-2.329-2.49-2.268-1.314.061-2.329 1.176-2.268 2.49l.263 5.65L52.229 16.398zM53.33 23.412l-.032.688-.688-.032c-1.013-.047-1.872.736-1.919 1.749-.047 1.013.736 1.872 1.749 1.919l4.355.202.202-4.355c.047-1.013-.736-1.872-1.749-1.919h0C54.237 21.616 53.377 22.399 53.33 23.412z"/><circle cx="44.5" cy="4.188" r="1.25"/><circle cx="57" cy="7.911" r="1.25"/><circle cx="45.75" cy="21.661" r="1.25"/><path d="M11.771 16.398l5.65.263.263-5.65c.061-1.314-.954-2.428-2.268-2.49h0c-1.314-.061-2.428.954-2.49 2.268l-.041.892-.892-.041c-1.314-.061-2.428.954-2.49 2.268v0C9.442 15.223 10.457 16.337 11.771 16.398zM7.002 23.582l.202 4.355 4.355-.202c1.013-.047 1.796-.906 1.749-1.919-.047-1.013-.906-1.796-1.919-1.749l-.688.032-.032-.688c-.047-1.013-.906-1.796-1.919-1.749C7.738 21.71 6.955 22.569 7.002 23.582z"/><circle cx="19.5" cy="4.188" r="1.25"/><circle cx="7" cy="7.911" r="1.25"/><circle cx="18.25" cy="21.661" r="1.25"/><path d="M32 27.313c2.412 0 4.375-1.963 4.375-4.375S34.412 18.563 32 18.563s-4.375 1.963-4.375 4.375S29.588 27.313 32 27.313zM32 19.813c1.723 0 3.125 1.402 3.125 3.125S33.723 26.063 32 26.063s-3.125-1.402-3.125-3.125S30.277 19.813 32 19.813zM3.899 53.563c.32 4.189 3.831 7.5 8.101 7.5h40c4.27 0 7.781-3.311 8.101-7.5H3.899z"/><path d="M6.383,52.313h5.003c0.218-7.089,4.122-13.649,10.301-17.232c0.299-0.173,0.681-0.071,0.854,0.227c0.173,0.299,0.071,0.681-0.227,0.854c-5.795,3.359-9.461,9.505-9.678,16.15h44.982c-0.333-13.842-11.696-25-25.617-25S6.716,38.47,6.383,52.313z M32,32.313c2.673,0,5.275,0.506,7.735,1.505c0.32,0.13,0.474,0.494,0.344,0.814c-0.099,0.243-0.332,0.39-0.579,0.39c-0.078,0-0.158-0.015-0.235-0.046c-2.31-0.938-4.754-1.413-7.265-1.413c-0.345,0-0.625-0.28-0.625-0.625S31.655,32.313,32,32.313z"/></svg>