<svg xmlns="http://www.w3.org/2000/svg" enable-background="new 0 0 50 50" viewBox="0 0 50 50"><path d="M7.1,41.2c2,1.3,4.6,1.6,7.4,0.3c0.2,0.1,1.1,1.6,2.3,0.7l19.6-14.7c-2.3-0.4-4.5-1.6-6.3-3.3c-1.7-1.7-2.8-3.8-3.3-6.1
		C13,37.3,10.8,37.8,12.3,39.4l0.7,0.7c-1.7,0.6-3.4,0.5-4.8-0.4c-3.5-2.4-1.1-6.6-0.9-9.9C8,26,5.8,22.6,2.2,21.9
		c-0.5-0.1-1,0.3-1.1,0.8c-0.1,0.5,0.3,1,0.8,1.1c2.6,0.5,4.1,2.8,3.6,5.6C5.3,32.1,2.4,38,7.1,41.2z M20,32.4l3.3-3.3
		c0.6-0.6,1.5-0.6,2.1,0c0.6,0.6,0.6,1.5,0,2.1l-3.3,3.3c-0.6,0.6-1.5,0.6-2.1,0C19.4,33.8,19.4,32.9,20,32.4z"/><path d="M44.6,24.1c-3.1-1.5-5.9-3.4-8.2-5.8c-2.4-2.4-4.4-5.3-6-8.6c-2.9,4-2.5,9.6,1.1,13.2C35.1,26.4,40.7,26.8,44.6,24.1z"/><path d="M46 8.5c-3.9-3.9-10.1-4-14.1-.4 2.9 6.7 7.7 11.6 14.4 14.6C50 18.7 49.9 12.4 46 8.5zM21.1 10.6c0-4.3-4.5-4.6-4.6-4.7v0h-2.1c0 .2 0 8.8 0 8.6-.5-.1-1.1-.2-1.6-.1-1.8.3-3.2 1.6-2.9 2.9 0 .3.1.5.3.7.6.9 1.9 1.4 3.4 1.2 1-.2 1.8-.6 2.4-1.2.2-.2.3-.4.4-.6 0 0 0 0 0 0 .1-.3.2-.6.2-.9V8.1c2.1.5 3.6 2 3.6 4.3 0 .4-.1.9-.2 1.3C20.6 12.9 21.1 11.8 21.1 10.6zM46.1 35.9c0-4.3-4.5-4.6-4.6-4.7v0h-2.1v1 7.5c-2.2-.6-4.9 1-4.6 2.9 0 .3.1.5.3.7.6.9 1.9 1.4 3.4 1.2 1.4-.2 2.4-1 2.8-1.8 0 0 0 0 0 0 .4-.7.1-.5.2-9.3 2.9.7 4.1 3.3 3.4 5.6C45.7 38.2 46.1 37.1 46.1 35.9z"/></svg>